
<svg version="1.0" xmlns="http://www.w3.org/2000/svg"
 width="1080.000000pt" height="1080.000000pt" viewBox="0 0 1080.000000 1080.000000"
 preserveAspectRatio="xMidYMid meet">

<g transform="translate(0.000000,1080.000000) scale(0.100000,-0.100000)"
fill="#000000" stroke="none">
<path d="M5701 8708 c-5 -35 -17 -97 -24 -138 -8 -41 -20 -106 -26 -145 -7
-38 -19 -99 -27 -135 -13 -60 -27 -136 -41 -232 -5 -36 -4 -38 24 -38 37 0 52
25 60 103 3 34 12 77 20 94 11 28 17 32 41 28 15 -3 54 -10 87 -16 33 -6 79
-13 103 -16 42 -5 43 -6 81 -87 22 -44 51 -106 64 -137 24 -54 42 -68 85 -69
19 0 16 10 -48 144 -33 70 -60 131 -60 136 0 6 9 10 19 10 11 0 22 4 26 9 3 5
18 12 33 16 58 13 110 80 133 172 25 103 -23 215 -117 267 -65 36 -176 65
-255 66 -26 0 -60 7 -75 15 -16 8 -43 15 -60 15 -31 0 -32 -1 -43 -62z m163
-23 c202 -39 260 -64 295 -129 20 -35 23 -53 19 -108 -5 -79 -37 -130 -102
-159 -45 -21 -148 -25 -191 -9 -14 5 -58 13 -96 17 -84 7 -97 24 -74 95 14 46
55 261 55 291 0 21 -5 21 94 2z"/>
<path d="M6582 8547 c-5 -7 -31 -57 -57 -112 -26 -55 -92 -190 -146 -299 -55
-109 -99 -204 -99 -209 0 -6 -7 -19 -17 -29 -9 -10 -14 -20 -12 -22 2 -2 112
-57 244 -122 286 -140 295 -142 408 -90 43 20 80 36 83 36 3 0 75 -64 282
-252 17 -16 32 -37 32 -47 0 -10 -13 -58 -29 -107 -24 -75 -27 -92 -16 -109 7
-11 21 -21 32 -23 17 -2 23 7 35 55 9 32 23 81 32 108 8 28 20 70 27 95 6 25
15 52 18 60 4 8 20 56 35 105 68 225 98 322 106 342 7 18 4 27 -20 47 l-29 24
-263 -115 c-145 -63 -279 -122 -298 -130 -102 -46 -166 -70 -170 -63 -3 4 -86
47 -185 95 -99 47 -190 91 -202 97 -13 6 -23 15 -23 20 0 19 114 240 127 245
8 3 84 -29 170 -71 86 -42 166 -76 177 -74 13 2 22 12 24 25 3 17 -4 25 -30
36 -110 47 -308 151 -308 163 0 22 110 234 122 234 6 0 94 -40 194 -90 101
-49 187 -90 193 -90 6 0 15 10 22 22 10 18 8 24 -12 39 -13 10 -27 19 -32 19
-4 0 -97 45 -207 99 -145 73 -201 96 -208 88z m878 -665 c0 -15 -4 -32 -9 -37
-12 -13 -61 -161 -61 -186 0 -10 -4 -20 -9 -23 -5 -3 -13 -25 -19 -49 -6 -24
-18 -58 -25 -77 l-15 -34 -58 55 c-33 30 -90 82 -129 115 -38 32 -73 64 -77
69 -9 12 30 44 52 45 8 0 29 9 45 20 17 11 35 20 42 20 6 0 55 21 110 47 92
45 128 60 146 62 4 1 7 -12 7 -27z"/>
<path d="M4562 8472 c-34 -10 -100 -79 -107 -113 -9 -38 -21 -37 -35 5 -6 19
-18 37 -27 40 -18 7 -43 -10 -43 -29 0 -20 50 -169 61 -179 5 -6 9 -19 9 -31
0 -11 14 -58 31 -105 17 -47 35 -98 40 -115 21 -71 39 -88 76 -74 l22 8 -31
83 c-16 46 -34 101 -39 123 -6 21 -14 44 -19 50 -13 16 -24 117 -16 158 7 40
66 104 107 119 29 10 34 22 23 52 -6 17 -15 18 -52 8z"/>
<path d="M3935 8206 c-57 -27 -128 -93 -143 -133 -35 -96 -36 -112 -18 -180
20 -77 50 -126 102 -172 54 -48 93 -61 180 -61 59 0 88 5 123 22 69 34 116 73
145 122 30 51 33 81 10 90 -27 10 -33 7 -48 -27 -22 -53 -72 -103 -128 -127
-43 -18 -65 -21 -119 -18 -70 5 -99 20 -140 72 l-19 24 56 34 c61 36 98 57
184 104 142 79 170 97 170 109 0 31 -68 101 -129 132 -79 42 -151 44 -226 9z
m192 -58 c29 -13 58 -34 67 -50 16 -26 16 -26 -36 -59 -29 -18 -78 -46 -108
-62 -30 -16 -69 -40 -87 -53 -17 -13 -36 -24 -41 -24 -5 0 -21 -9 -35 -20 -22
-18 -26 -18 -38 -4 -8 9 -13 43 -13 84 -1 60 3 73 29 112 38 53 114 97 170 98
22 0 63 -10 92 -22z"/>
<path d="M5127 8102 c-22 -5 -38 -42 -30 -71 11 -43 88 -39 99 6 11 43 -24 75
-69 65z"/>
<path d="M3460 7837 c-122 -35 -200 -126 -210 -247 l-5 -65 -34 33 c-38 36
-60 38 -71 6 -7 -16 9 -38 87 -120 183 -190 436 -444 443 -444 4 0 15 9 25 19
16 19 16 21 -3 48 -11 15 -57 64 -101 108 -45 44 -81 83 -81 86 0 4 21 9 48
12 119 13 184 55 238 157 28 52 26 191 -3 246 -64 120 -215 193 -333 161z
m165 -90 c82 -41 125 -113 125 -209 0 -86 -41 -151 -119 -190 -109 -55 -204
-24 -296 96 -57 75 -43 189 34 266 72 72 161 84 256 37z"/>
<path d="M7702 7421 c-19 -5 -39 -14 -45 -20 -6 -6 -17 -11 -23 -11 -7 0 -33
-14 -58 -31 -162 -108 -211 -316 -120 -499 34 -67 123 -155 187 -185 64 -29
77 -31 77 -11 0 8 3 21 6 29 4 11 -11 22 -49 40 -65 30 -129 92 -165 162 -23
44 -26 62 -26 145 0 113 14 149 93 225 146 141 356 124 479 -39 23 -30 44 -66
48 -80 3 -14 10 -29 15 -32 5 -3 9 -39 9 -79 0 -72 1 -75 26 -81 33 -9 44 7
44 67 0 144 -103 304 -241 375 -43 22 -70 27 -139 30 -47 2 -100 -1 -118 -5z"/>
<path d="M2972 7265 c-57 -25 -109 -73 -144 -133 -31 -53 -33 -63 -33 -147 0
-81 3 -95 28 -137 38 -64 117 -120 197 -141 63 -17 67 -17 134 2 103 30 150
72 195 175 28 64 28 157 1 218 -25 57 -92 123 -154 154 -58 28 -169 33 -224 9z
m168 -66 c185 -67 227 -272 80 -389 -93 -73 -246 -44 -331 64 -30 38 -44 121
-30 173 24 88 118 171 195 172 16 1 55 -8 86 -20z"/>
<path d="M8297 6843 c-12 -3 -16 -10 -13 -20 4 -9 11 -36 18 -62 6 -25 15 -54
20 -64 5 -10 15 -40 22 -67 l13 -48 -36 -16 c-36 -15 -242 -79 -294 -92 -15
-3 -30 -10 -33 -15 -3 -5 -13 -9 -23 -9 -18 0 -139 -37 -191 -58 -14 -6 -38
-13 -53 -17 -24 -5 -28 -10 -25 -33 2 -21 9 -28 30 -30 29 -3 142 28 191 54
16 8 36 14 46 14 18 0 132 35 166 51 11 5 43 15 70 23 28 8 76 21 109 30 59
17 86 11 86 -18 0 -17 53 -177 66 -199 12 -21 40 -14 46 11 3 10 -4 42 -14 72
-11 30 -24 73 -29 95 -6 22 -21 72 -35 110 -25 70 -39 113 -67 213 -15 52 -33
83 -46 81 -3 -1 -14 -3 -24 -6z"/>
<path d="M2386 6751 c-19 -36 -22 -33 89 -76 78 -29 98 -37 235 -90 52 -20
120 -46 150 -57 30 -12 64 -24 75 -29 126 -52 185 -66 197 -47 4 7 8 20 8 29
0 16 -12 22 -230 104 -52 20 -104 40 -115 44 -11 5 -47 18 -80 31 -33 12 -69
26 -80 31 -11 4 -60 24 -110 42 -49 19 -98 38 -107 41 -12 6 -21 0 -32 -23z"/>
<path d="M2532 6468 c-7 -7 -12 -19 -12 -28 0 -14 64 -67 159 -133 15 -9 58
-40 96 -68 39 -28 91 -64 118 -81 26 -17 47 -36 47 -43 0 -11 -125 -45 -166
-45 -11 0 -29 -7 -40 -15 -10 -8 -37 -15 -59 -15 -22 0 -58 -5 -80 -11 -22 -6
-68 -15 -102 -21 -59 -10 -64 -12 -71 -42 -5 -17 -8 -32 -8 -33 3 -4 152 18
180 26 49 15 206 50 259 57 26 3 50 10 53 15 3 5 20 9 39 9 59 0 82 15 87 54
4 35 2 37 -100 108 -57 40 -134 96 -172 123 -37 28 -91 66 -119 85 -28 19 -61
43 -72 53 -26 20 -22 20 -37 5z"/>
<path d="M2588 5804 c-70 -21 -143 -94 -168 -166 -24 -69 -24 -106 -2 -175 23
-70 79 -135 144 -167 43 -22 66 -26 133 -26 56 0 87 5 101 15 10 8 25 15 32
15 22 0 83 52 108 91 35 57 60 172 46 213 -7 18 -12 41 -12 51 0 30 -43 107
-65 115 -20 8 -55 -4 -55 -18 0 -4 10 -18 23 -32 13 -14 29 -46 35 -72 33
-131 -6 -235 -110 -289 -77 -39 -74 -47 -82 207 -4 124 -10 232 -13 240 -7 18
-53 17 -115 -2z m76 -76 c3 -13 6 -105 6 -205 l0 -183 -22 0 c-27 0 -94 31
-125 57 -29 24 -63 104 -63 147 0 75 70 176 136 196 47 14 61 11 68 -12z"/>
<path d="M7820 5751 c-15 -28 -12 -46 8 -64 27 -24 58 -21 81 9 32 41 11 74
-46 74 -22 0 -36 -6 -43 -19z"/>
<path d="M7816 5284 c-3 -9 -6 -26 -6 -39 0 -21 7 -25 58 -35 31 -6 77 -17
102 -25 25 -7 86 -23 135 -35 50 -11 110 -28 135 -36 25 -8 58 -14 73 -14 16
0 42 -8 58 -17 l28 -17 -30 -18 c-16 -10 -34 -18 -39 -18 -5 0 -44 -16 -87
-36 -131 -59 -138 -63 -388 -173 -146 -64 -180 -85 -183 -113 -3 -24 1 -28 40
-38 24 -6 66 -17 93 -25 28 -7 93 -23 145 -35 52 -12 109 -26 125 -32 17 -5
75 -20 130 -34 55 -13 114 -28 131 -34 56 -18 66 -14 62 27 -3 38 -3 38 -63
49 -33 6 -68 15 -77 19 -9 3 -43 13 -75 20 -96 22 -176 43 -213 54 -19 6 -48
11 -65 11 -16 0 -41 9 -53 18 l-24 18 26 17 c14 9 31 17 39 17 7 0 22 7 33 15
10 8 24 15 31 15 7 0 47 16 90 36 180 84 223 103 318 144 55 23 105 46 110 50
6 4 22 10 36 13 23 6 49 42 49 67 0 5 -19 14 -42 20 -87 21 -164 42 -213 56
-27 8 -70 19 -95 24 -25 4 -81 18 -125 30 -44 12 -105 28 -135 35 -30 7 -71
18 -90 24 -19 6 -36 11 -36 11 -1 0 -5 -7 -8 -16z"/>
<path d="M2581 5139 c-206 -73 -291 -286 -211 -525 16 -49 30 -96 30 -104 0
-8 6 -27 14 -42 8 -14 17 -45 21 -67 6 -36 10 -41 34 -41 15 0 60 12 101 26
41 14 91 29 110 33 37 8 122 35 180 57 19 7 52 16 73 20 20 3 40 10 43 15 3 5
13 9 23 9 10 0 52 11 92 24 64 21 74 27 77 50 2 14 -3 40 -11 58 -8 18 -20 51
-26 73 -67 255 -118 337 -254 405 -54 27 -69 30 -151 29 -63 0 -108 -6 -145
-20z m269 -75 c37 -19 79 -47 93 -62 32 -34 97 -158 97 -186 0 -12 7 -34 15
-50 8 -15 15 -36 15 -45 1 -9 7 -33 14 -54 l14 -38 -37 -15 c-20 -9 -69 -24
-110 -35 -40 -10 -87 -25 -102 -33 -16 -8 -43 -17 -61 -21 -18 -3 -53 -13 -78
-21 -113 -36 -213 -64 -215 -62 -13 16 -35 72 -35 90 0 13 -6 35 -14 50 -8 14
-17 45 -21 67 -4 23 -11 43 -16 47 -12 7 -12 151 0 158 4 3 11 18 14 34 3 16
24 52 46 81 32 43 55 61 118 92 107 52 168 53 263 3z"/>
<path d="M7626 4489 c-75 -28 -116 -68 -158 -150 -32 -63 -38 -84 -38 -141 0
-70 7 -83 40 -73 17 5 20 15 20 66 0 102 73 212 159 237 68 21 161 10 161 -19
0 -7 -50 -97 -111 -201 -61 -103 -109 -196 -107 -205 6 -32 67 -53 158 -53 81
0 88 2 141 36 204 132 163 419 -73 505 -65 23 -127 23 -192 -2z m281 -131 c81
-90 66 -235 -30 -312 -36 -29 -44 -31 -122 -31 -46 0 -87 3 -91 7 -8 9 -1 24
48 110 91 157 150 248 162 248 7 0 22 -10 33 -22z"/>
<path d="M3229 4166 c-182 -65 -268 -250 -188 -402 17 -33 40 -70 52 -82 31
-34 110 -72 149 -72 66 0 60 -13 -53 -110 -61 -52 -115 -98 -121 -101 -14 -9
-6 -40 15 -53 11 -7 21 -8 31 -1 20 15 157 129 252 210 76 65 265 224 321 270
l24 20 -23 23 -24 22 -42 -31 -42 -31 0 79 c0 71 -3 84 -32 133 -68 112 -206
167 -319 126z m163 -73 c133 -52 180 -219 94 -335 -28 -39 -86 -77 -142 -94
-97 -29 -199 25 -250 132 -30 64 -30 92 1 157 31 67 78 113 141 137 61 24 102
25 156 3z"/>
<path d="M7311 4096 c-21 -23 -21 -25 -7 -97 8 -41 17 -94 21 -119 3 -25 8
-57 11 -72 5 -27 5 -28 -43 -28 -26 0 -95 7 -152 14 l-104 14 -23 -27 c-12
-14 -21 -27 -20 -28 1 -1 35 -4 76 -8 41 -3 93 -10 115 -15 22 -5 63 -10 90
-10 28 0 57 -5 65 -10 15 -9 30 -81 51 -242 7 -49 15 -88 19 -88 3 0 17 11 29
24 l22 24 -16 93 c-9 52 -19 113 -22 137 -7 50 -14 49 164 31 119 -13 143 -7
143 31 0 14 -12 18 -61 24 -34 3 -81 6 -105 6 -47 0 -143 19 -160 32 -6 4 -14
44 -17 88 -4 45 -11 97 -16 118 -6 20 -13 58 -16 85 -4 26 -10 47 -14 47 -4 0
-17 -11 -30 -24z"/>
<path d="M6570 3727 c-93 -49 -117 -143 -60 -242 15 -27 38 -70 51 -95 12 -25
53 -99 90 -165 36 -66 81 -148 99 -183 40 -74 48 -82 78 -71 25 9 28 35 8 64
-7 11 -34 59 -59 107 -25 47 -55 101 -65 120 -10 18 -40 74 -67 123 -27 50
-59 107 -72 127 -51 82 -20 164 67 175 37 5 41 8 38 32 -4 36 -49 39 -108 8z"/>
<path d="M3757 3703 c-4 -3 -7 -17 -7 -30 0 -20 5 -23 38 -23 75 -1 175 -55
211 -114 36 -58 45 -117 27 -180 -9 -31 -20 -56 -25 -56 -4 0 -40 24 -79 53
-39 28 -103 75 -142 102 -39 28 -91 65 -116 83 -25 19 -51 31 -59 28 -8 -3
-25 -29 -39 -59 -53 -110 -24 -258 64 -327 129 -101 282 -91 390 27 28 30 53
67 56 81 3 15 9 35 14 44 40 73 2 204 -83 283 -33 32 -75 59 -111 73 -56 21
-126 29 -139 15z m-36 -270 c103 -71 239 -175 239 -182 0 -4 -10 -17 -22 -28
-92 -83 -222 -65 -305 43 -25 34 -28 45 -28 114 0 84 14 117 44 101 9 -5 41
-26 72 -48z"/>
<path d="M6826 3636 c-65 -24 -123 -89 -111 -126 9 -29 22 -25 71 25 43 45 75
55 119 39 17 -7 245 -308 245 -324 0 -8 -38 -39 -113 -92 -23 -16 -13 -48 15
-48 11 0 37 13 57 29 74 58 80 59 120 12 40 -46 50 -49 76 -21 17 18 16 20
-14 57 -39 47 -39 68 0 88 22 12 29 22 27 38 -4 30 -32 33 -64 8 -37 -29 -47
-27 -80 22 -79 116 -185 252 -216 277 -34 26 -86 32 -132 16z"/>
<path d="M4418 3349 c-8 -5 -36 -39 -62 -76 -26 -38 -69 -99 -97 -138 -27 -38
-62 -88 -78 -110 -15 -22 -45 -65 -66 -95 -22 -30 -55 -78 -75 -106 -19 -28
-45 -65 -58 -82 -22 -30 -22 -31 -3 -41 44 -24 42 -26 233 251 18 26 56 79 83
117 28 39 68 96 90 128 l40 58 7 -65 c3 -36 12 -191 18 -345 13 -299 14 -305
65 -305 15 0 33 16 58 53 43 63 72 103 202 283 55 76 106 149 114 163 8 14 21
31 30 38 14 10 17 0 28 -85 6 -53 12 -178 12 -277 1 -99 4 -210 8 -247 6 -67
6 -68 36 -68 l30 0 -7 373 c-5 251 -11 380 -19 396 -7 14 -25 28 -40 32 -31 8
-45 -7 -152 -160 -27 -39 -68 -96 -90 -126 -22 -30 -60 -84 -85 -120 -25 -36
-59 -84 -77 -106 l-32 -40 -5 33 c-3 18 -8 128 -11 243 -6 224 -21 393 -36
411 -14 17 -44 23 -61 13z"/>
<path d="M6205 3316 c-92 -43 -145 -102 -145 -164 0 -39 23 -93 49 -116 31
-28 114 -32 225 -11 92 17 95 17 132 -2 49 -25 61 -60 39 -107 -10 -20 -33
-45 -52 -57 -45 -28 -147 -50 -195 -42 l-38 6 0 -37 0 -36 45 0 c58 0 128 17
190 46 92 43 125 85 125 157 0 104 -64 154 -183 143 -38 -3 -77 -11 -87 -16
-29 -16 -118 -12 -145 6 -33 21 -43 75 -21 109 40 61 164 103 271 92 l55 -6 0
30 0 29 -107 0 c-92 0 -115 -4 -158 -24z"/>
<path d="M5637 3182 c-22 -24 -21 -65 1 -85 25 -23 45 -21 70 6 28 30 28 48
-1 75 -28 27 -49 28 -70 4z"/>
<path d="M6886 2838 c-21 -29 -20 -51 2 -71 24 -22 45 -21 65 1 22 24 21 55
-1 75 -25 23 -48 21 -66 -5z"/>
</g>
</svg>
